<?xml version="1.0" standalone="no"?>
<!DOCTYPE svg PUBLIC "-//W3C//DTD SVG 20010904//EN"
 "http://www.w3.org/TR/2001/REC-SVG-20010904/DTD/svg10.dtd">
<svg version="1.0" xmlns="http://www.w3.org/2000/svg"
 width="256.000000pt" height="256.000000pt" viewBox="0 0 256.000000 256.000000"
 preserveAspectRatio="xMidYMid meet">
<metadata>
Created by potrace 1.14, written by Peter Selinger 2001-2017
</metadata>
<g transform="translate(0.000000,256.000000) scale(0.100000,-0.100000)"
fill="#000000" stroke="none">
<path d="M1106 2369 c-449 -61 -841 -340 -1056 -753 -28 -54 -49 -101 -45
-104 3 -3 34 -18 68 -32 l62 -27 53 101 c129 244 318 430 559 550 70 35 192
80 243 90 14 2 48 10 75 16 65 16 292 21 375 10 263 -38 491 -152 681 -340
147 -146 237 -312 274 -505 13 -70 14 -271 1 -330 -62 -279 -235 -523 -450
-632 -151 -77 -324 -101 -486 -69 -102 20 -240 85 -323 151 -106 84 -192 228
-215 360 -44 255 97 521 321 604 201 74 451 -16 537 -194 33 -69 37 -197 8
-273 -28 -74 -109 -156 -174 -175 -97 -29 -213 0 -273 69 -81 92 -59 232 45
284 48 25 70 25 119 0 l39 -20 53 52 c48 48 51 53 37 69 -55 61 -215 83 -306
42 -62 -28 -124 -93 -157 -162 -22 -47 -26 -69 -25 -141 0 -71 5 -95 27 -141
35 -72 109 -141 195 -182 60 -29 76 -32 157 -32 105 1 148 13 230 67 89 59
174 178 190 267 3 19 8 38 11 43 3 5 6 43 6 86 0 284 -242 510 -550 514 -179
3 -323 -54 -442 -174 -215 -216 -267 -552 -129 -829 99 -199 293 -352 529
-419 96 -27 271 -37 368 -20 39 6 75 12 79 12 15 0 148 50 188 70 169 85 342
264 438 455 83 163 112 291 111 493 -1 134 -4 168 -27 252 -55 206 -149 367
-304 521 -196 194 -466 330 -739 372 -71 11 -308 14 -378 4z"/>
</g>
</svg>
